<?xml version="1.0" encoding="UTF-8"?>
<svg width="16px" height="16px" viewBox="0 0 16 16" version="1.1" xmlns="http://www.w3.org/2000/svg" xmlns:xlink="http://www.w3.org/1999/xlink">
    <title>icon-截图</title>
    <g id="UI稿-1.0" stroke="none" stroke-width="1" fill="none" fill-rule="evenodd">
        <g id="编组-9" transform="translate(-331.000000, -892.000000)">
            <g id="输入框" transform="translate(275.000000, 832.000000)">
                <g id="icon-截图" transform="translate(48.000000, 52.000000)">
                    <g transform="translate(6.000000, 6.000000)" id="截图">
                        <rect id="透明底框" fill="#FFFFFF" opacity="0" x="0" y="0" width="20" height="20"></rect>
                        <path d="M4.60661613,2.56970402 C6.21880539,2.10741619 7.90050135,3.03959548 8.36278918,4.65178474 C8.7654026,6.0558646 8.11032248,7.51266481 6.86950703,8.1707502 L8.43011296,9.13228157 L16.6675932,4.05475142 L17.4548738,5.33154009 L9.85911296,10.0142816 L17.3833864,14.6539876 L16.5961058,15.9307763 L8.42911296,10.8962816 L6.94099446,11.8147775 C8.18180991,12.4728629 8.83689003,13.9296631 8.43427661,15.3337429 C7.97198878,16.9459322 6.29029282,17.8781115 4.67810356,17.4158237 C3.0659143,16.9535358 2.13373501,15.2718399 2.59602284,13.6596506 C2.82143402,12.8735484 3.33676312,12.2491206 3.99258861,11.8691929 L6.99911296,10.0142816 L3.92110119,8.11633477 C3.32489619,7.77094596 2.84480392,7.22349094 2.59308697,6.5361979 L2.52453541,6.32587707 C2.06224758,4.71368781 2.99442687,3.03199185 4.60661613,2.56970402 Z M4.39838852,14.1764706 C4.22153251,14.7932408 4.57815342,15.436602 5.1949236,15.613458 C5.81169378,15.790314 6.45505492,15.4336931 6.63191093,14.8169229 C6.80876693,14.2001527 6.45214603,13.5567916 5.83537585,13.3799356 C5.21860566,13.2030796 4.57524452,13.5597005 4.39838852,14.1764706 Z M6.5604235,5.16860478 C6.3835675,4.5518346 5.74020636,4.19521369 5.12343617,4.3720697 C4.50666599,4.5489257 4.15004509,5.19228684 4.32690109,5.80905703 C4.50375709,6.42582721 5.14711824,6.78244811 5.76388842,6.60559211 C6.3806586,6.42873611 6.73727951,5.78537496 6.5604235,5.16860478 Z" id="形状结合" fill="#4F4F5E" fill-rule="nonzero"></path>
                    </g>
                </g>
            </g>
        </g>
    </g>
</svg>