<?xml version="1.0" encoding="UTF-8"?>
<svg width="16px" height="16px" viewBox="0 0 16 16" version="1.1" xmlns="http://www.w3.org/2000/svg" xmlns:xlink="http://www.w3.org/1999/xlink">
    <title>Icon-添加插件</title>
    <g id="Icon-添加插件" stroke="none" stroke-width="1" fill="none" fill-rule="evenodd">
        <g id="添加内容_16x16" fill="#FFFFFF" opacity="0">
            <g id="添加内容">
                <rect id="矩形" x="0" y="0" width="16" height="16"></rect>
            </g>
        </g>
        <g id="编组" transform="translate(2.000000, 1.999933)">
            <rect id="矩形备份" fill="#C3E4FF" x="0.2" y="6.7500665" width="5" height="5" rx="1.5"></rect>
            <path d="M3.7,6.5500665 C4.63888407,6.5500665 5.4,7.31118243 5.4,8.2500665 L5.4,10.2500665 C5.4,11.1889506 4.63888407,11.9500665 3.7,11.9500665 L1.7,11.9500665 C0.761115925,11.9500665 0,11.1889506 0,10.2500665 L0,8.2500665 C0,7.31118243 0.761115925,6.5500665 1.7,6.5500665 L3.7,6.5500665 Z M3.7,6.9500665 L1.7,6.9500665 C0.982029825,6.9500665 0.4,7.53209633 0.4,8.2500665 L0.4,10.2500665 C0.4,10.9680367 0.982029825,11.5500665 1.7,11.5500665 L3.7,11.5500665 C4.41797017,11.5500665 5,10.9680367 5,10.2500665 L5,8.2500665 C5,7.53209633 4.41797017,6.9500665 3.7,6.9500665 Z" id="矩形备份" fill="#7EC0FA" fill-rule="nonzero"></path>
            <rect id="矩形备份-4" fill="#4DAAFF" x="0.2" y="0.450066502" width="5" height="5" rx="1.5"></rect>
            <path d="M3.7,0.250066502 C4.63888407,0.250066502 5.4,1.01118243 5.4,1.9500665 L5.4,3.9500665 C5.4,4.88895058 4.63888407,5.6500665 3.7,5.6500665 L1.7,5.6500665 C0.761115925,5.6500665 0,4.88895058 0,3.9500665 L0,1.9500665 C0,1.01118243 0.761115925,0.250066502 1.7,0.250066502 L3.7,0.250066502 Z M3.7,0.650066502 L1.7,0.650066502 C0.982029825,0.650066502 0.4,1.23209633 0.4,1.9500665 L0.4,3.9500665 C0.4,4.66803668 0.982029825,5.2500665 1.7,5.2500665 L3.7,5.2500665 C4.41797017,5.2500665 5,4.66803668 5,3.9500665 L5,1.9500665 C5,1.23209633 4.41797017,0.650066502 3.7,0.650066502 Z" id="矩形备份-4" fill="#208BFA" fill-rule="nonzero"></path>
            <rect id="矩形备份-5" fill="#ABD7FF" x="6.5" y="6.7500665" width="5" height="5" rx="1.5"></rect>
            <path d="M10,6.5500665 C10.9388841,6.5500665 11.7,7.31118243 11.7,8.2500665 L11.7,10.2500665 C11.7,11.1889506 10.9388841,11.9500665 10,11.9500665 L8,11.9500665 C7.06111593,11.9500665 6.3,11.1889506 6.3,10.2500665 L6.3,8.2500665 C6.3,7.31118243 7.06111593,6.5500665 8,6.5500665 L10,6.5500665 Z M10,6.9500665 L8,6.9500665 C7.28202983,6.9500665 6.7,7.53209633 6.7,8.2500665 L6.7,10.2500665 C6.7,10.9680367 7.28202983,11.5500665 8,11.5500665 L10,11.5500665 C10.7179702,11.5500665 11.3,10.9680367 11.3,10.2500665 L11.3,8.2500665 C11.3,7.53209633 10.7179702,6.9500665 10,6.9500665 Z" id="矩形备份-5" fill="#54AFFA" fill-rule="nonzero"></path>
            <path d="M7.946979,1.9470455 L8.48670462,0.597731454 C8.6000987,0.314246241 8.92183294,0.176360138 9.20531815,0.289754223 C9.34579526,0.345945066 9.45710454,0.457254346 9.51329538,0.597731454 L10.053021,1.9470455 L11.402335,2.48677112 C11.6858203,2.6001652 11.8237064,2.92189944 11.7103123,3.20538466 C11.6541214,3.34586176 11.5428122,3.45717104 11.402335,3.51336189 L10.053021,4.0530875 L9.51329538,5.40240155 C9.3999013,5.68588676 9.07816706,5.82377287 8.79468185,5.71037878 C8.65420474,5.65418794 8.54289546,5.54287866 8.48670462,5.40240155 L7.946979,4.0530875 L6.59766495,3.51336189 C6.31417974,3.3999678 6.17629364,3.07823356 6.28968772,2.79474835 C6.34587856,2.65427124 6.45718784,2.54296196 6.59766495,2.48677112 L7.946979,1.9470455 Z" id="矩形备份-6" fill="#1D92FF"></path>
            <path d="M8.25458544,0.504883785 C8.41925788,0.0932026923 8.88648473,-0.107037387 9.29816582,0.0576350501 C9.5021686,0.139236159 9.66381345,0.300881013 9.74541456,0.504883785 L10.245,1.7540665 L11.4951827,2.25465194 C11.8725571,2.40560168 12.0722622,2.81078116 11.976086,3.19436208 L11.9424315,3.29823232 C11.8608303,3.5022351 11.6991855,3.66387995 11.4951827,3.74548106 L10.245,4.2450665 L9.74541456,5.49524922 C9.59446482,5.87262355 9.18928534,6.0723287 8.80570442,5.97615253 L8.70183418,5.94249795 C8.4978314,5.86089684 8.33618655,5.69925199 8.25458544,5.49524922 L7.754,4.2450665 L6.50481728,3.74548106 C6.12744295,3.59453133 5.9277378,3.18935184 6.02391397,2.80577092 L6.05756855,2.70190068 C6.13916966,2.49789791 6.30081451,2.33625305 6.50481728,2.25465194 L7.754,1.7540665 L8.25458544,0.504883785 Z M9.11247048,0.521873396 C8.95718115,0.459757662 8.78093952,0.535289789 8.71882379,0.690579123 L8.17909817,2.03989317 L8.03982667,2.17916467 L6.69051262,2.71889029 C6.61356118,2.74967087 6.55258747,2.81064457 6.52180689,2.88759602 C6.45969116,3.04288535 6.53522329,3.21912698 6.69051262,3.28124271 L8.03982667,3.82096833 L8.17909817,3.96023984 L8.71882379,5.30955388 C8.74960437,5.38650532 8.81057807,5.44747903 8.88752952,5.47825961 C9.04281885,5.54037534 9.21906048,5.46484321 9.28117621,5.30955388 L9.82090183,3.96023984 L9.96017333,3.82096833 L11.3094874,3.28124271 C11.3864388,3.25046214 11.4474125,3.18948843 11.4781931,3.11253699 C11.5403088,2.95724765 11.4647767,2.78100602 11.3094874,2.71889029 L9.96017333,2.17916467 L9.82090183,2.03989317 L9.28117621,0.690579123 C9.25039563,0.613627679 9.18942193,0.552653973 9.11247048,0.521873396 Z" id="矩形备份-6" fill="#3663FF" fill-rule="nonzero"></path>
        </g>
    </g>
</svg>