<?xml version="1.0" encoding="UTF-8"?>
<svg width="16px" height="16px" viewBox="0 0 16 16" version="1.1" xmlns="http://www.w3.org/2000/svg" xmlns:xlink="http://www.w3.org/1999/xlink">
    <title>Icon/16px/通用类/截图</title>
    <g id="Icon/16px/通用类/截图" stroke="none" stroke-width="1" fill="none" fill-rule="evenodd">
        <g id="截图">
            <rect id="透明底框" fill="#FFFFFF" opacity="0" x="0" y="0" width="16" height="16"></rect>
            <path d="M3.68529291,2.05576321 C4.97504431,1.68593295 6.32040108,2.43167638 6.69023135,3.72142779 C7.01229187,4.84458631 6.4883563,6.00991319 5.49588497,6.53645198 L6.74389037,7.30602525 L13.3340746,3.24380113 L13.963899,4.26523207 L7.88789037,8.01202525 L13.9067091,11.7231901 L13.2768846,12.744621 L6.74489037,8.71602525 L5.55307491,9.45197016 C6.54554624,9.97850895 7.06948181,11.1438358 6.74742129,12.2669943 C6.37759102,13.5567458 5.03223426,14.3024892 3.74248285,13.9326589 C2.45273144,13.5628287 1.706988,12.2174719 2.07681827,10.9277205 C2.24632381,10.3365844 2.62075766,9.85972781 3.10084055,9.55218205 L3.18062338,9.50451991 L5.60089037,8.01102525 L3.12343344,6.48390223 L3.04365061,6.43624009 C2.56356772,6.12869433 2.18913387,5.65183772 2.01962833,5.06070166 C1.64979806,3.77095025 2.3955415,2.42559348 3.68529291,2.05576321 Z M3.51871081,11.3411765 C3.37722601,11.8345927 3.66252273,12.3492816 4.15593888,12.4907664 C4.64935503,12.6322512 5.16404394,12.3469545 5.30552874,11.8535383 C5.44701355,11.3601222 5.16171682,10.8454333 4.66830068,10.7039484 C4.17488453,10.5624636 3.66019562,10.8477604 3.51871081,11.3411765 Z M5.2483388,4.13488383 C5.106854,3.64146768 4.59216509,3.35617096 4.09874894,3.49765576 C3.60533279,3.63914056 3.32003607,4.15382948 3.46152087,4.64724562 C3.60300568,5.14066177 4.11769459,5.42595849 4.61111074,5.28447369 C5.10452688,5.14298888 5.3898236,4.62829997 5.2483388,4.13488383 Z" id="形状结合" fill="#4F4F5E" fill-rule="nonzero"></path>
        </g>
    </g>
</svg>