<?xml version="1.0" encoding="UTF-8"?>
<svg width="44px" height="32px" viewBox="0 0 44 32" version="1.1" xmlns="http://www.w3.org/2000/svg" xmlns:xlink="http://www.w3.org/1999/xlink">
    <title>发送按钮</title>
    <g id="UI稿-1.0" stroke="none" stroke-width="1" fill="none" fill-rule="evenodd" opacity="0.2">
        <g id="编组-9" transform="translate(-1055.000000, -884.000000)" fill="#292933">
            <g id="输入框" transform="translate(275.000000, 832.000000)">
                <g id="发送按钮" transform="translate(780.000000, 52.000000)">
                    <path d="M28,0 C36.836556,0 44,7.163444 44,16 C44,24.836556 36.836556,32 28,32 L16,32 C7.163444,32 0,24.836556 0,16 C0,7.163444 7.163444,1.77635684e-15 16,0 L28,0 Z M28.4362306,10.001708 L28.3449907,10.0172922 L15.3867121,13.4530049 C15.2021434,13.5020727 15.0593556,13.6475191 15.0145537,13.8320926 C14.9697518,14.016666 15.0301104,14.2108093 15.1718707,14.3381025 L17.619082,16.5342639 L23.6815748,14.1043911 L19.1261011,17.886266 L19.1261011,22.0174125 L21.3250975,19.858562 L24.6770417,22.8662357 C24.8106245,22.9862156 24.997042,23.0292216 25.1701519,22.9799949 C25.3432618,22.9307681 25.4785685,22.7962744 25.5280643,22.624233 L28.9801288,10.6598689 C29.0313648,10.4806919 28.9818902,10.2879729 28.8505414,10.1550859 C28.7191927,10.0221988 28.5261806,9.96959117 28.3449907,10.0172922 Z" id="形状结合"></path>
                </g>
            </g>
        </g>
    </g>
</svg>