<?xml version="1.0" encoding="UTF-8"?>
<svg width="20px" height="20px" viewBox="0 0 20 20" version="1.1" xmlns="http://www.w3.org/2000/svg" xmlns:xlink="http://www.w3.org/1999/xlink">
    <title>icon-上传附件</title>
    <g id="icon-上传附件" stroke="none" stroke-width="1" fill="none" fill-rule="evenodd">
        <g id="编组-4">
            <rect id="矩形" fill="#D8D8D8" opacity="0" transform="translate(10.000000, 10.000000) scale(1, -1) translate(-10.000000, -10.000000) " x="0" y="0" width="20" height="20"></rect>
            <path d="M11.25,1.6 C13.1277681,1.6 14.65,3.12223185 14.65,5 L14.65,13.75 C14.65,16.3181241 12.5681241,18.4 10,18.4 C7.43187591,18.4 5.35,16.3181241 5.35,13.75 L5.35,6.25 L7.15,6.25 L7.15,13.75 C7.15,15.3240115 8.42598846,16.6 10,16.6 C11.5740115,16.6 12.85,15.3240115 12.85,13.75 L12.85,5 C12.85,4.1163444 12.1336556,3.4 11.25,3.4 C10.3663444,3.4 9.65,4.1163444 9.65,5 L9.65,13.75 C9.65,13.9432997 9.80670034,14.1 10,14.1 C10.1932997,14.1 10.35,13.9432997 10.35,13.75 L10.35,6.25 L12.15,6.25 L12.15,13.75 C12.15,14.9374122 11.1874122,15.9 10,15.9 C8.81258779,15.9 7.85,14.9374122 7.85,13.75 L7.85,5 C7.85,3.12223185 9.37223185,1.6 11.25,1.6 Z" id="矩形" fill="#4F4F5E" fill-rule="nonzero" transform="translate(10.000000, 10.000000) scale(-1, 1) rotate(-45.000000) translate(-10.000000, -10.000000) "></path>
        </g>
    </g>
</svg>