<?xml version="1.0" encoding="UTF-8"?>
<svg width="44px" height="32px" viewBox="0 0 44 32" version="1.1" xmlns="http://www.w3.org/2000/svg" xmlns:xlink="http://www.w3.org/1999/xlink">
    <title>发送按钮</title>
    <g id="UI稿-1.0" stroke="none" stroke-width="1" fill="none" fill-rule="evenodd" opacity="0.2">
        <g id="编组-9" transform="translate(-1055.000000, -884.000000)">
            <g id="输入框" transform="translate(275.000000, 832.000000)">
                <g id="发送按钮" transform="translate(780.000000, 52.000000)">
                    <rect id="矩形" fill="#292933" x="0" y="0" width="44" height="32" rx="16"></rect>
                    <g id="icon/AI-白色备份" transform="translate(14.000000, 8.000000)">
                        <rect id="矩形" fill-opacity="0" fill="#D8D8D8" x="0" y="0" width="16" height="16"></rect>
                        <g id="编组" transform="translate(1.000000, 2.000000)" fill="#FFFFFF" fill-rule="nonzero">
                            <path d="M4.1261011,7.88626604 L8.68157478,4.1043911 L2.61908198,6.53426389 L0.171870657,4.33810247 C0.0301103549,4.21080926 -0.0302481886,4.01666604 0.014553693,3.83209257 C0.0593555746,3.6475191 0.202143366,3.50207272 0.386712142,3.45300485 L13.3449907,0.0172922115 C13.5261806,-0.0304088259 13.7191927,0.0221988282 13.8505414,0.155085878 C13.9818902,0.287972929 14.0313648,0.48069189 13.9801288,0.659868934 L10.5280643,12.624233 C10.4785685,12.7962744 10.3432618,12.9307681 10.1701519,12.9799949 C9.99704198,13.0292216 9.81062452,12.9862156 9.67704174,12.8662357 L6.32509749,9.85856202 L4.1261011,12.0174125 L4.1261011,7.88626604 Z" id="路径"></path>
                        </g>
                    </g>
                </g>
            </g>
        </g>
    </g>
</svg>